<svg xmlns="http://www.w3.org/2000/svg" width="47.935" height="48.001" viewBox="0 0 47.935 48.001">
  <g>
    <path d="M43.292,0H12.47A4.647,4.647,0,0,0,7.828,4.641V7.668H.727A.727.727,0,0,0,0,8.4V39.446A8.565,8.565,0,0,0,8.555,48H39.379a8.565,8.565,0,0,0,8.556-8.555V4.641A4.648,4.648,0,0,0,43.292,0ZM9.283,4.64A3.191,3.191,0,0,1,12.47,1.454H39.935A4.609,4.609,0,0,0,38.651,4.64V38.716H32.278V8.4a.727.727,0,0,0-.728-.727l-22.268,0V4.64ZM8.555,46.545a7.109,7.109,0,0,1-7.1-7.1V9.123H30.822V39.445a8.553,8.553,0,0,0,3.788,7.1Zm37.925-7.1a7.1,7.1,0,0,1-14.165.727h7.063a.729.729,0,0,0,.728-.727V4.64a3.188,3.188,0,0,1,6.375,0V39.445Z" fill="#1a171b"/>
    <path d="M26.805,19.8h-7a.728.728,0,0,0,0,1.456h7a.728.728,0,1,0,0-1.456Z" fill="#1a171b"/>
    <path d="M26.805,13.488h-7a.728.728,0,0,0,0,1.456h7a.728.728,0,1,0,0-1.456Z" fill="#1a171b"/>
    <path d="M26.805,26.1h-7a.727.727,0,1,0,0,1.454h7a.727.727,0,1,0,0-1.454Z" fill="#1a171b"/>
    <path d="M26.805,32.41H20.9a.728.728,0,1,0,0,1.456h5.906a.728.728,0,1,0,0-1.456Z" fill="#1a171b"/>
    <path d="M5.472,33.865H17.02a.728.728,0,0,0,0-1.456H5.472a.728.728,0,1,0,0,1.456Z" fill="#1a171b"/>
    <path d="M22.926,38.716H14.2a.728.728,0,0,0,0,1.456h8.726a.728.728,0,0,0,0-1.456Z" fill="#1a171b"/>
    <path d="M10.321,38.716H5.472a.728.728,0,1,0,0,1.456h4.849a.728.728,0,1,0,0-1.456Z" fill="#1a171b"/>
    <path d="M5.472,27.556h9.7a.728.728,0,0,0,.728-.727V14.214a.729.729,0,0,0-.728-.727h-9.7a.728.728,0,0,0-.728.727V26.829A.729.729,0,0,0,5.472,27.556ZM6.2,14.943h8.243V26.1H6.2Z" fill="#1a171b"/>
  </g>
</svg>
